<svg width="167" height="26" viewBox="0 0 167 26" fill="none" xmlns="http://www.w3.org/2000/svg">
    <path d="M14.2775 20.2303C13.4483 18.8808 12.8476 17.3977 12.5008 15.8435L0.49881 20.9323L2.27056 25.3116L14.2775 20.2303Z" fill="white"/>
    <path d="M39.6287 15.8435C39.2819 17.3977 38.6812 18.8808 37.852 20.2303L49.8589 25.3116L51.6331 20.9223L39.6287 15.8435Z" fill="white"/>
    <path d="M14.2775 5.09132L2.27056 0.00251554L0.49881 4.38933L12.5057 9.48063C12.8525 7.92564 13.4532 6.4417 14.2824 5.09132" fill="white"/>
    <path d="M51.6331 4.38931L49.8589 0L37.8545 5.0913C38.6819 6.44143 39.2816 7.92438 39.6286 9.47812L51.6331 4.38931Z" fill="white"/>
    <path d="M26.0647 3.16272C24.2306 3.16272 22.4376 3.71947 20.9126 4.76259C19.3875 5.80571 18.1989 7.28833 17.497 9.02297C16.7951 10.7576 16.6115 12.6663 16.9693 14.5078C17.3271 16.3493 18.2104 18.0408 19.5073 19.3685C20.8042 20.6961 22.4566 21.6002 24.2555 21.9665C26.0545 22.3328 27.9191 22.1448 29.6136 21.4263C31.3081 20.7078 32.7565 19.491 33.7755 17.9299C34.7945 16.3688 35.3384 14.5334 35.3384 12.6558C35.3384 10.1381 34.3613 7.72348 32.6222 5.94318C30.883 4.16288 28.5243 3.16272 26.0647 3.16272ZM26.0647 17.4024C25.1477 17.4024 24.2512 17.124 23.4887 16.6024C22.7261 16.0809 22.1318 15.3396 21.7809 14.4722C21.4299 13.6049 21.3381 12.6506 21.517 11.7298C21.6959 10.8091 22.1376 9.96332 22.786 9.2995C23.4345 8.63568 24.2607 8.18362 25.1601 8.00047C26.0596 7.81733 26.9919 7.91132 27.8392 8.27058C28.6864 8.62983 29.4106 9.23821 29.9201 10.0188C30.4296 10.7993 30.7016 11.717 30.7016 12.6558C30.7025 13.2798 30.5833 13.8978 30.3507 14.4746C30.1181 15.0513 29.7767 15.5754 29.3461 16.017C28.9154 16.4585 28.4039 16.8088 27.8409 17.0478C27.2778 17.2868 26.6743 17.4099 26.0647 17.4099V17.4024Z" fill="white"/>
    <path d="M90.6152 10.6581C90.6152 8.11346 88.5919 6.20306 85.5299 6.20306H79.7186V19.7975H83.54V15.2851H84.8791L87.5198 19.7975H91.9711L88.7546 14.2994C89.3464 13.8618 89.8215 13.3064 90.1439 12.6755C90.4663 12.0446 90.6275 11.3546 90.6152 10.6581ZM83.5233 9.24061H85.2295C85.4526 9.2236 85.677 9.25029 85.888 9.31889C86.0989 9.38749 86.2915 9.49643 86.4529 9.63848C86.6143 9.78052 86.7408 9.95241 86.8241 10.1427C86.9073 10.333 86.9454 10.5374 86.9358 10.7422C86.9445 10.9496 86.9064 11.1564 86.8238 11.3496C86.7412 11.5429 86.6158 11.7184 86.4556 11.8651C86.2953 12.0119 86.1037 12.1267 85.8927 12.2024C85.6817 12.2781 85.4559 12.313 85.2295 12.3049H83.5233V9.24061Z" fill="white"/>
    <path d="M68.6385 6.00052C67.1271 6.00127 65.6499 6.41245 64.3936 7.18205C63.1373 7.95165 62.1584 9.04513 61.5806 10.3242C61.0028 11.6033 60.852 13.0106 61.1474 14.3682C61.4427 15.7258 62.171 16.9726 63.24 17.9512C64.309 18.9297 65.6708 19.596 67.1532 19.8658C68.6356 20.1356 70.1721 19.9967 71.5683 19.4668C72.9646 18.9369 74.158 18.0397 74.9976 16.8887C75.8372 15.7377 76.2853 14.3845 76.2853 13.0003C76.2982 12.0781 76.1094 11.1629 75.7302 10.3086C75.3509 9.45424 74.7888 8.67808 74.077 8.02578C73.3652 7.37348 72.518 6.85824 71.5854 6.51042C70.6529 6.1626 69.6537 5.98923 68.6468 6.00052M68.6468 16.5574C67.876 16.5696 67.1186 16.3713 66.4712 15.9879C65.8237 15.6045 65.3156 15.0533 65.0113 14.4044C64.7071 13.7556 64.6206 13.0385 64.7629 12.3445C64.9051 11.6505 65.2696 11.011 65.81 10.5074C66.3505 10.0038 67.0423 9.65886 67.7975 9.51657C68.5526 9.37429 69.337 9.44106 70.0506 9.70841C70.7641 9.97575 71.3747 10.4316 71.8045 11.0178C72.2343 11.604 72.4639 12.2941 72.464 13.0003C72.474 13.4648 72.3826 13.9264 72.1951 14.3581C72.0077 14.7898 71.7279 15.1829 71.3724 15.5142C71.0168 15.8456 70.5926 16.1086 70.1245 16.2877C69.6565 16.4668 69.1541 16.5585 68.6468 16.5574Z" fill="white"/>
    <path d="M98.2871 6.20306H94.4032V19.7975H98.2871V6.20306Z" fill="white"/>
    <path d="M150.705 6.20306H146.821V19.7975H150.705V6.20306Z" fill="white"/>
    <path d="M132.612 9.70293H136.308V19.7975H140.318V9.70293H144.014V6.20306H132.612V9.70293Z" fill="white"/>
    <path d="M126.234 13.7606L120.489 6.20306H116.918V19.7975H120.581L120.535 12.5647L126.234 19.7975H129.959V6.20306H126.234V13.7606Z" fill="white"/>
    <path d="M102.459 6.20306V19.7975H112.784V16.7905H106.026V14.5324H112.625V11.3803H106.026V9.21386H112.784V6.20306H102.459Z" fill="white"/>
    <path d="M165.644 10.6581C165.644 8.11346 163.621 6.20306 160.559 6.20306H154.748V19.7975H158.569V15.2851H159.904L162.549 19.7975H167L163.784 14.2994C164.375 13.8618 164.85 13.3064 165.173 12.6755C165.495 12.0446 165.656 11.3546 165.644 10.6581ZM158.552 9.24061H160.258C160.481 9.2236 160.706 9.25029 160.917 9.31889C161.128 9.38749 161.32 9.49643 161.482 9.63848C161.643 9.78052 161.77 9.95241 161.853 10.1427C161.936 10.333 161.974 10.5374 161.965 10.7422C161.973 10.9496 161.935 11.1564 161.853 11.3496C161.77 11.5429 161.645 11.7184 161.484 11.8651C161.324 12.0119 161.133 12.1267 160.922 12.2024C160.711 12.2781 160.485 12.313 160.258 12.3049H158.552V9.24061Z" fill="white"/>
</svg>
