<svg width="167" height="26" viewBox="0 0 167 26" fill="none" xmlns="http://www.w3.org/2000/svg">
    <path d="M14.2775 20.2303C13.4483 18.8808 12.8476 17.3977 12.5008 15.8435L0.49881 20.9323L2.27056 25.3116L14.2775 20.2303Z" fill="white"/>
    <path d="M39.6287 15.8435C39.2819 17.3977 38.6812 18.8808 37.852 20.2303L49.8589 25.3116L51.6331 20.9223L39.6287 15.8435Z" fill="white"/>
    <path d="M14.2775 5.09132L2.27056 0.00251554L0.49881 4.38933L12.5057 9.48063C12.8525 7.92564 13.4532 6.4417 14.2824 5.09132" fill="white"/>
    <path d="M51.6331 4.38931L49.8589 0L37.8545 5.0913C38.6819 6.44143 39.2816 7.92438 39.6286 9.47812L51.6331 4.38931Z" fill="white"/>
    <path d="M26.0647 3.16272C24.2306 3.16272 22.4376 3.71947 20.9126 4.76259C19.3875 5.80571 18.1989 7.28833 17.497 9.02297C16.7951 10.7576 16.6115 12.6663 16.9693 14.5078C17.3271 16.3493 18.2104 18.0408 19.5073 19.3685C20.8042 20.6961 22.4566 21.6002 24.2555 21.9665C26.0545 22.3328 27.9191 22.1448 29.6136 21.4263C31.3081 20.7078 32.7565 19.491 33.7755 17.9299C34.7945 16.3688 35.3384 14.5334 35.3384 12.6558C35.3384 10.1381 34.3613 7.72348 32.6222 5.94318C30.883 4.16288 28.5243 3.16272 26.0647 3.16272ZM26.0647 17.4024C25.1477 17.4024 24.2512 17.124 23.4887 16.6024C22.7261 16.0809 22.1318 15.3396 21.7809 14.4722C21.4299 13.6049 21.3381 12.6506 21.517 11.7298C21.6959 10.8091 22.1376 9.96332 22.786 9.2995C23.4345 8.63568 24.2607 8.18362 25.1601 8.00047C26.0596 7.81733 26.9919 7.91132 27.8392 8.27058C28.6864 8.62983 29.4106 9.23821 29.9201 10.0188C30.4296 10.7993 30.7016 11.717 30.7016 12.6558C30.7025 13.2798 30.5833 13.8978 30.3507 14.4746C30.1181 15.0513 29.7767 15.5754 29.3461 16.017C28.9154 16.4585 28.4039 16.8088 27.8409 17.0478C27.2778 17.2868 26.6743 17.4099 26.0647 17.4099V17.4024Z" fill="white"/>
    <path d="M82.6391 6.20319H77.5122V19.792H80.8817V15.2832H82.6391C83.2299 15.301 83.818 15.1937 84.3675 14.9677C84.917 14.7416 85.4164 14.4017 85.8352 13.9686C86.2541 13.5355 86.5836 13.0183 86.8037 12.4486C87.0237 11.8788 87.1297 11.2685 87.1152 10.6548C87.1152 8.11695 85.3328 6.20319 82.6391 6.20319ZM82.3838 12.3033H80.8817V9.24025H82.3838C82.5803 9.22385 82.778 9.25103 82.9637 9.31997C83.1494 9.38891 83.3188 9.49804 83.4609 9.64014C83.6029 9.78224 83.7142 9.95407 83.7875 10.1442C83.8607 10.3344 83.8942 10.5386 83.8858 10.7432C83.8935 10.9502 83.86 11.1567 83.7873 11.3496C83.7145 11.5425 83.6041 11.7177 83.4631 11.8642C83.322 12.0108 83.1533 12.1254 82.9676 12.2009C82.7819 12.2765 82.5831 12.3114 82.3838 12.3033Z" fill="white"/>
    <path d="M67.7491 6.00039C66.4158 5.99833 65.1119 6.4071 64.0024 7.175C62.8928 7.94289 62.0275 9.0354 61.5159 10.3143C61.0043 11.5931 60.8694 13.0009 61.1283 14.3594C61.3872 15.7179 62.0282 16.9661 62.9703 17.9461C63.9124 18.9261 65.1132 19.5938 66.4207 19.8647C67.7282 20.1357 69.0838 19.9977 70.3158 19.4682C71.5478 18.9387 72.6009 18.0415 73.3418 16.8902C74.0828 15.7388 74.4783 14.3851 74.4783 13.0002C74.489 12.0788 74.3223 11.1644 73.9881 10.3108C73.6538 9.45717 73.1587 8.68154 72.5319 8.02945C71.905 7.37736 71.159 6.86196 70.3377 6.51351C69.5164 6.16507 68.6363 5.99062 67.7491 6.00039ZM67.7491 16.5521C67.0692 16.5645 66.401 16.3663 65.8299 15.9828C65.2588 15.5994 64.8105 15.0479 64.5422 14.3988C64.2739 13.7497 64.1977 13.0324 64.3234 12.3382C64.4491 11.6439 64.7709 11.0043 65.2479 10.5008C65.7249 9.99725 66.3354 9.65264 67.0016 9.51084C67.6678 9.36904 68.3596 9.43649 68.9888 9.70458C69.618 9.97268 70.1561 10.4293 70.5345 11.0162C70.913 11.6031 71.1146 12.2938 71.1137 13.0002C71.1224 13.4643 71.0417 13.9255 70.8764 14.3568C70.711 14.788 70.4644 15.1806 70.151 15.5115C69.8376 15.8424 69.4636 16.1049 69.0512 16.2836C68.6387 16.4623 68.196 16.5536 67.7491 16.5521Z" fill="white"/>
    <path d="M93.0135 13.8636L93.0685 6.2085H89.7841V19.7869H92.5979L97.2141 12.3658L97.1641 19.7869H100.413V6.2085H97.6347L93.0135 13.8636Z" fill="white"/>
    <path d="M104.093 6.20319V19.792H113.191V16.7861H107.233V14.5291H113.051V11.3828H107.233V9.20905H113.191V6.20319H104.093Z" fill="white"/>
    <path d="M124.681 11.2061H120.175V6.2085H116.836V19.7869H120.175V14.6176H124.681V19.7869H128.051V6.2085H124.681V11.2061Z" fill="white"/>
    <path d="M130.664 9.58868H133.919V19.792H137.454V9.58868H140.708V6.20319H130.664V9.58868Z" fill="white"/>
    <path d="M146.416 13.8636L146.471 6.2085H143.186V19.7869H146L150.616 12.3658L150.556 19.7869H153.816V6.2085H151.032L146.416 13.8636Z" fill="white"/>
    <path d="M162.493 6.20319H157.376V19.792H160.74V15.2832H162.493C163.086 15.3046 163.677 15.1999 164.229 14.9756C164.782 14.7513 165.285 14.412 165.707 13.9786C166.129 13.5452 166.461 13.0268 166.683 12.4552C166.905 11.8837 167.013 11.271 166.999 10.6548C166.999 8.11695 165.216 6.20319 162.493 6.20319ZM162.247 12.3033H160.745V9.24025H162.247C162.444 9.22385 162.642 9.25103 162.827 9.31997C163.013 9.38891 163.182 9.49804 163.324 9.64014C163.466 9.78224 163.578 9.95407 163.651 10.1442C163.724 10.3344 163.758 10.5386 163.749 10.7432C163.758 10.9504 163.725 11.1572 163.652 11.3505C163.58 11.5438 163.47 11.7193 163.328 11.866C163.187 12.0127 163.018 12.1273 162.832 12.2026C162.646 12.2778 162.447 12.3122 162.247 12.3033Z" fill="white"/>
</svg>
