<svg width="40" height="40" viewBox="0 0 40 40" fill="none" xmlns="http://www.w3.org/2000/svg">
<g clip-path="url(#clip0_8_26)">
<path d="M19.9191 -2.22732e-05C14.6376 0.0047379 9.57391 2.10486 5.83938 5.83938C2.10486 9.57391 0.0047379 14.6376 -2.22732e-05 19.9191C-0.0167552 25.222 2.07132 30.3148 5.80586 34.0797C9.5404 37.8446 14.6162 39.9738 19.9191 40C25.2434 39.9952 30.3483 37.878 34.1132 34.1132C37.878 30.3483 39.9952 25.2434 40 19.9191C39.9738 14.6162 37.8446 9.5404 34.0797 5.80586C30.3148 2.07132 25.222 -0.0167552 19.9191 -2.22732e-05ZM19.9191 38.0944C15.1278 38.0587 10.546 36.1261 7.17656 32.7196C3.80715 29.3132 1.92475 24.7104 1.94153 19.9191C1.95575 15.1555 3.85439 10.5911 7.22275 7.22275C10.5911 3.85439 15.1555 1.95575 19.9191 1.94153C24.7104 1.92475 29.3132 3.80715 32.7196 7.17656C36.1261 10.546 38.0587 15.1278 38.0944 19.9191C38.0896 24.738 36.1732 29.3582 32.7657 32.7657C29.3582 36.1732 24.738 38.0896 19.9191 38.0944Z" fill="black"/>
<path d="M19.9191 7.11008C16.5226 7.11246 13.266 8.46278 10.8644 10.8644C8.46276 13.2661 7.11245 16.5226 7.11007 19.9191C7.09093 23.337 8.42917 26.6228 10.8308 29.0548C13.2325 31.4867 16.5012 32.8661 19.9191 32.8899C22.7838 32.8912 25.5718 31.964 27.8651 30.2472C27.9652 30.1713 28.0492 30.0764 28.1125 29.9678C28.1757 29.8593 28.2168 29.7394 28.2336 29.6149C28.2503 29.4904 28.2422 29.3639 28.2098 29.2426C28.1774 29.1212 28.1214 29.0074 28.0449 28.9078C27.9682 28.8075 27.8724 28.7232 27.7632 28.6599C27.6539 28.5966 27.5332 28.5554 27.408 28.5387C27.2828 28.522 27.1555 28.5301 27.0335 28.5626C26.9114 28.5951 26.797 28.6514 26.6966 28.7281C24.7385 30.1887 22.3619 30.9797 19.9191 30.9842C17.0089 30.9581 14.2282 29.7782 12.1873 27.7036C10.1463 25.629 9.01212 22.8292 9.03367 19.9191C9.03367 17.0304 10.1799 14.2598 12.2208 12.2156C14.2617 10.1713 17.0304 9.02051 19.9191 9.01575C22.8292 8.999 25.6271 10.1378 27.6983 12.1821C29.7696 14.2263 30.9449 17.009 30.9663 19.9191V21.1056C30.9663 21.793 30.6938 22.4524 30.2086 22.9393C29.7233 23.4263 29.0649 23.701 28.3775 23.7034C27.6885 23.7034 27.0278 23.4297 26.5406 22.9425C26.0535 22.4553 25.7797 21.7946 25.7797 21.1056V15.182C25.7797 15.0557 25.7549 14.9306 25.7066 14.814C25.6582 14.6973 25.5873 14.5913 25.498 14.5019C25.4087 14.4126 25.3027 14.3417 25.186 14.2934C25.0693 14.2451 24.9442 14.2202 24.8179 14.2202C24.6916 14.2202 24.5666 14.2451 24.4499 14.2934C24.3332 14.3417 24.2272 14.4126 24.1379 14.5019C24.0485 14.5913 23.9777 14.6973 23.9294 14.814C23.881 14.9306 23.8561 15.0557 23.8561 15.182V15.7123L23.4966 15.4337C22.4655 14.6422 21.2009 14.2155 19.9011 14.2202C18.3904 14.2226 16.9422 14.8238 15.874 15.892C14.8058 16.9602 14.2046 18.4084 14.2022 19.9191C14.2046 21.4298 14.8058 22.878 15.874 23.9462C16.9422 25.0144 18.3904 25.6156 19.9011 25.618C20.7307 25.6211 21.5515 25.448 22.3093 25.1102C23.067 24.7724 23.7444 24.2776 24.2966 23.6584L24.4854 23.4427L24.6472 23.6764C25.0618 24.2772 25.6165 24.7679 26.2633 25.1062C26.9101 25.4445 27.6296 25.6201 28.3595 25.618C29.5515 25.618 30.6947 25.1444 31.5375 24.3016C32.3804 23.4587 32.8539 22.3156 32.8539 21.1236V19.9371C32.8349 16.5223 31.4626 13.2544 29.0378 10.8499C26.6131 8.44543 23.3339 7.10051 19.9191 7.11008ZM19.9191 23.7124C19.4221 23.7112 18.9303 23.6121 18.4716 23.4209C18.0129 23.2296 17.5964 22.9498 17.2459 22.5976C16.8953 22.2454 16.6175 21.8275 16.4284 21.3679C16.2393 20.9084 16.1426 20.416 16.1438 19.9191C16.1426 19.4221 16.2393 18.9298 16.4284 18.4702C16.6175 18.0107 16.8953 17.5928 17.2459 17.2406C17.5964 16.8884 18.0129 16.6086 18.4716 16.4173C18.9303 16.2261 19.4221 16.127 19.9191 16.1258C20.9408 16.1183 21.9249 16.5111 22.6607 17.22C23.3965 17.929 23.8256 18.8977 23.8561 19.9191C23.8256 20.9404 23.3965 21.9092 22.6607 22.6182C21.9249 23.3271 20.9408 23.7199 19.9191 23.7124Z" fill="black"/>
</g>
<defs>
<clipPath id="clip0_8_26">
<rect width="40" height="40" fill="white"/>
</clipPath>
</defs>
</svg>
