<svg width="40" height="40" viewBox="0 0 40 40" fill="none" xmlns="http://www.w3.org/2000/svg">
<path d="M32.7199 20.0088C32.7267 18.2653 32.3695 16.5396 31.671 14.9422L31.6088 14.8C30.6035 12.5748 28.9798 10.6855 26.9311 9.35698C24.8824 8.02848 22.4951 7.31683 20.0534 7.30676C17.6138 7.31637 15.2283 8.02582 13.18 9.3509C11.1317 10.676 9.50674 12.561 8.49795 14.7822L8.44461 14.9067C7.74514 16.5104 7.38501 18.2414 7.38685 19.991C7.3892 23.3567 8.72726 26.584 11.1072 28.9639C13.4871 31.3438 16.7143 32.6819 20.08 32.6842C23.4334 32.6678 26.6443 31.326 29.0122 28.9514C31.3801 26.5768 32.7129 23.3622 32.7199 20.0088ZM29.111 26.0532C27.9208 27.8506 26.2218 29.2525 24.2311 30.0798L23.4578 30.3998L23.8489 29.6709C24.0089 29.3598 24.16 29.0309 24.2933 28.6932C24.6736 27.7642 24.971 26.8034 25.1822 25.822L25.2355 25.591H29.4221L29.111 26.0532ZM16.3023 23.8132V23.5465C16.1464 22.3678 16.0692 21.18 16.0712 19.991C16.0708 18.7749 16.1539 17.5602 16.3201 16.3555V16.0977H23.7333V16.3555C23.8995 17.5602 23.9826 18.7749 23.9822 19.991C23.9842 21.18 23.9069 22.3678 23.7511 23.5465V23.8132H16.3023ZM30.3021 16.3111C30.7284 17.4972 30.9449 18.7484 30.9421 20.0088C30.9423 21.2341 30.738 22.4507 30.3377 23.6088L30.2666 23.8132H25.5466V23.4755C25.6827 22.3249 25.751 21.1674 25.751 20.0088C25.7501 18.8202 25.6759 17.6328 25.5288 16.4533V16.1155H30.2221L30.3021 16.3111ZM24.2311 9.92891C26.185 10.7463 27.8589 12.1145 29.0488 13.8667L29.3688 14.3378H25.2177L25.1644 14.0977C24.9468 13.147 24.6495 12.2164 24.2755 11.3156C24.1453 10.9847 23.9969 10.6613 23.8311 10.3467L23.44 9.60893L24.2311 9.92891ZM16.7556 13.9556C17.5289 10.9956 18.8178 9.08452 20.0267 9.08452C21.2356 9.08452 22.5245 10.9956 23.2978 13.9556L23.3955 14.3378H16.6578L16.7556 13.9556ZM11.0046 13.8667C12.1964 12.1162 13.8697 10.7485 15.8223 9.92891L16.5956 9.60893L16.2045 10.3467C16.0534 10.64 15.9023 10.9689 15.7601 11.3156C15.3861 12.2164 15.0888 13.147 14.8712 14.0977L14.8179 14.3289H10.6668L11.0046 13.8667ZM9.7246 23.6443C9.31628 22.4881 9.10884 21.2705 9.11127 20.0443C9.10846 18.784 9.32499 17.5327 9.75124 16.3466L9.82236 16.1511H14.5246L14.4801 16.4888C14.333 17.6683 14.2588 18.8557 14.2579 20.0443C14.2567 21.2032 14.328 22.361 14.4712 23.511V23.8488H9.77793L9.7246 23.6443ZM15.8223 30.1153C13.8316 29.288 12.1326 27.8862 10.9424 26.0888L10.6313 25.6265H14.8179L14.8712 25.8576C15.0824 26.839 15.3798 27.7997 15.7601 28.7287C15.8934 29.0665 16.0534 29.3953 16.2045 29.7064L16.5956 30.4353L15.8223 30.1153ZM16.7112 25.9998L16.6223 25.6265H23.3955L23.3066 25.9998C22.5422 28.9687 21.2178 30.9598 20.0089 30.9598C18.8 30.9598 17.4934 28.9332 16.729 25.9643L16.7112 25.9998Z" fill="black"/>
<path d="M37.5908 10.3999L37.5375 10.2933V10.1688C37.5804 10.0338 37.6014 9.89275 37.5997 9.75106V5.62666C37.5997 5.21646 37.4368 4.82308 37.1467 4.53303C36.8566 4.24298 36.4633 4.08002 36.0531 4.08002H31.9198C31.5096 4.08002 31.1162 4.24298 30.8261 4.53303C30.5361 4.82308 30.3731 5.21646 30.3731 5.62666V9.75106C30.3731 10.1621 30.5358 10.5564 30.8256 10.8478C31.1154 11.1393 31.5088 11.3042 31.9198 11.3066H36.0353L36.1242 11.4577C37.5067 14.0865 38.2297 17.0119 38.2308 19.9821C38.237 22.3748 37.7688 24.745 36.8534 26.9558C35.938 29.1665 34.5935 31.1739 32.8976 32.8619C31.2096 34.5578 29.2022 35.9023 26.9915 36.8177C24.7808 37.7331 22.4105 38.2013 20.0177 38.1952C18.5898 38.1951 17.1668 38.0281 15.7778 37.6974H15.5733C15.4069 37.6968 15.2437 37.743 15.1022 37.8307C14.9044 37.9557 14.7638 38.1538 14.7111 38.3818C14.6834 38.4958 14.6786 38.6143 14.6969 38.7302C14.7152 38.8462 14.7563 38.9574 14.8178 39.0573C14.9428 39.2552 15.1408 39.3957 15.3689 39.4484C16.8913 39.8148 18.4518 39.9998 20.0177 39.9995C22.6452 40.0069 25.2481 39.493 27.6756 38.4875C30.1031 37.482 32.307 36.0049 34.1598 34.1419C36.0186 32.2887 37.4917 30.0855 38.4941 27.6597C39.4964 25.2339 40.0082 22.6334 39.9997 20.0087C40.0164 16.6543 39.1879 13.3497 37.5908 10.3999ZM35.8131 9.51105H32.1776V5.84888H35.8486L35.8131 9.51105Z" fill="black"/>
<path d="M9.20011 30.1242H4.91577L4.79131 29.9908C2.83221 27.0298 1.78453 23.5592 1.77801 20.0087C1.77066 17.6145 2.23824 15.2425 3.15369 13.0302C4.06915 10.8178 5.4143 8.80902 7.11127 7.12C8.8003 5.42302 10.8091 4.07787 13.0215 3.16242C15.2338 2.24697 17.6057 1.77939 20 1.78673C21.8076 1.78739 23.605 2.05703 25.3333 2.58674C25.5578 2.65613 25.8007 2.63375 26.0088 2.52451C26.2144 2.41019 26.3697 2.2231 26.4444 2.00005C26.511 1.77434 26.4854 1.53138 26.3732 1.3245C26.3188 1.22096 26.2444 1.12922 26.1544 1.05448C26.0644 0.979739 25.9606 0.923472 25.8488 0.888955C23.9431 0.298893 21.9594 -0.000761356 19.9645 7.73371e-05C17.337 -0.007254 14.7341 0.506727 12.3066 1.51221C9.87907 2.5177 7.67515 3.99473 5.82239 5.85781C3.96467 7.71456 2.49357 9.92126 1.49421 12.3502C0.49485 14.7792 -0.0129179 17.3822 0.000249684 20.0087C-0.0104459 24.0202 1.19516 27.9407 3.458 31.2531L3.52023 31.3508V31.4664C3.51107 31.5342 3.51107 31.603 3.52023 31.6708V35.8041C3.52023 36.2143 3.68313 36.6077 3.97318 36.8977C4.26323 37.1878 4.65667 37.3507 5.06686 37.3507H9.19127C9.39513 37.3519 9.59715 37.3128 9.78583 37.2356C9.9745 37.1584 10.1461 37.0446 10.2906 36.9009C10.4352 36.7571 10.5499 36.5862 10.6282 36.398C10.7065 36.2098 10.7468 36.008 10.7468 35.8041V31.6708C10.7468 31.4677 10.7068 31.2666 10.6291 31.079C10.5514 30.8913 10.4374 30.7208 10.2938 30.5772C10.1502 30.4336 9.97966 30.3196 9.79201 30.2419C9.60436 30.1642 9.40322 30.1242 9.20011 30.1242ZM8.97789 35.573H5.33352V31.9019H9.00459L8.97789 35.573Z" fill="black"/>
</svg>
